# xmcd CD database file
# Copyright (C) 1997 Ti Kan
# 
# Track frame offsets:
#     182
#     19347
#     39372
#     60065
#     80780
#     96975
#     113137
#     130522
#     146165
#     165462
#     177962
#     196482
#     211912
#     225777
# 
# Disc length: 3218 seconds
# 
# Revision: 1
# Processed by: cddbd v1.4b41PL1 Copyright (c) Steve Scherf et al.
# Submitted via: DiscPlay 4.0.3
# 
DISCID=b00c900e
DTITLE=Chuck Pyle - Step By Step
DYEAR=1900
DGENRE=
TTITLE0=Horses On The Highway
TTITLE1=Lay This Old Guitar Down
TTITLE2=I Always Go Walking
TTITLE3=Here Comes The Water
TTITLE4=Light Of My Love
TTITLE5=Keep It Simple
TTITLE6=Step By Step
TTITLE7=Jaded Lover
TTITLE8=Family Land
TTITLE9=Why, Honey, Why?
TTITLE10=Train Wreck
TTITLE11=Keep 'Er Steady, Cowgirl
TTITLE12=Saturday Night Somewhere
TTITLE13=Otehr Side Of The Hill
EXTD=
EXTT0=
EXTT1=
EXTT2=
EXTT3=
EXTT4=
EXTT5=
EXTT6=
EXTT7=
EXTT8=
EXTT9=
EXTT10=
EXTT11=
EXTT12=
EXTT13=
PLAYORDER=
